<?xml version="1.0" encoding="UTF-8" standalone="no"?>
<!-- Created with Inkscape (http://www.inkscape.org/) -->

<svg
   width="210mm"
   height="297mm"
   viewBox="0 0 210 297"
   version="1.1"
   id="svg5992"
   inkscape:version="1.1 (c68e22c387, 2021-05-23)"
   sodipodi:docname="survivor_machine.svg"
   xmlns:inkscape="http://www.inkscape.org/namespaces/inkscape"
   xmlns:sodipodi="http://sodipodi.sourceforge.net/DTD/sodipodi-0.dtd"
   xmlns="http://www.w3.org/2000/svg"
   xmlns:svg="http://www.w3.org/2000/svg">
  <sodipodi:namedview
     id="namedview5994"
     pagecolor="#ffffff"
     bordercolor="#111111"
     borderopacity="1"
     inkscape:pageshadow="0"
     inkscape:pageopacity="0"
     inkscape:pagecheckerboard="1"
     inkscape:document-units="mm"
     showgrid="false"
     inkscape:zoom="0.35723203"
     inkscape:cx="239.34024"
     inkscape:cy="997.95083"
     inkscape:window-width="1920"
     inkscape:window-height="991"
     inkscape:window-x="-9"
     inkscape:window-y="-9"
     inkscape:window-maximized="1"
     inkscape:current-layer="g1042" />
  <defs
     id="defs5989" />
  <g
     inkscape:label="Layer 1"
     inkscape:groupmode="layer"
     id="layer1">
    <g
       id="g5972"
       transform="matrix(24.100616,0,0,24.098651,47372.987,4188.3823)"
       inkscape:export-filename="D:\application files\vscode\lan multiplayer game\topdown-shooter\Vector Characters\survivor 1\g5972.png"
       inkscape:export-xdpi="94.865868"
       inkscape:export-ydpi="94.865868">
      <g
         id="g1042">
        <g
           id="g1076"
           inkscape:export-filename="D:\application files\vscode\lan multiplayer game\topdown-shooter\Vector Characters\survivor 1\g1076.png"
           inkscape:export-xdpi="94.865868"
           inkscape:export-ydpi="94.865868">
          <g
             id="use5280"
             transform="matrix(0.26458333,0,0,0.26458333,-2784.85,-362)">
            <path
               fill="#000000"
               fill-opacity="0.101961"
               stroke="none"
               d="m 3102.65,742.6 q -4.65,4.75 -4.65,11.35 0,6.65 4.65,11.3 4.7,4.75 11.3,4.75 6.7,0 11.3,-4.75 4.75,-4.65 4.75,-11.3 0,-6.6 -4.75,-11.35 -4.6,-4.6 -11.3,-4.6 -6.6,0 -11.3,4.6 z"
               id="path6139" />
          </g>
          <g
             id="g951"
             inkscape:transform-center-x="-115.42243"
             inkscape:transform-center-y="43.342986"
             transform="matrix(0.99697367,-0.0777463,0.07773363,0.99697367,6.6028705,-153.00722)">
            <g
               id="use5284"
               transform="matrix(0.26458333,0,0,0.26458333,-2784.85,-362)">
              <path
                 fill="#ffd0a3"
                 stroke="none"
                 d="m 3127,762.75 -3.25,0.9 q 1.75,3.1 1.85,6.65 0,0.15 0,0.4 l 3.25,-0.95 q 0.45,-0.1 0.75,-0.25 0.35,-0.2 0.55,-0.45 0.65,-0.7 0.35,-1.9 l -0.85,-2.9 q 0,-0.1 -0.05,-0.2 -0.55,-1.85 -2.6,-1.3 z"
                 id="path6129" />
              <path
                 fill="#a38568"
                 stroke="none"
                 d="m 3126.45,760.85 h 0.05 l -2.05,0.55 -0.7,2.25 3.25,-0.9 q 2.05,-0.55 2.6,1.3 0.05,0.1 0.05,0.2 l 0.85,2.9 q 0.3,1.2 -0.35,1.9 -0.2,0.25 -0.55,0.45 -0.3,0.15 -0.75,0.25 l -3.25,0.95 1.8,1.6 2,-0.6 q 0.1,-0.05 0.2,-0.05 1.35,-0.4 2.05,-1.25 1.4,-1.35 0.8,-3.7 0,-0.05 0,-0.1 l -0.85,-2.8 q -0.5,-2.05 -1.85,-2.7 -0.1,-0.05 -0.15,-0.1 -1.2,-0.7 -3.15,-0.15 z"
                 id="path6131" />
              <path
                 fill="#6376a3"
                 stroke="none"
                 d="m 3118.25,769.95 q -1.1,1.1 -2.6,1.1 h -2.25 q -0.4,0 -0.75,-0.05 2.5,1.65 5.6,1.7 1.2,0.05 2.45,-0.15 l 4.05,-0.6 q 0.4,-0.05 0.65,-0.25 0.2,-0.3 0.2,-0.75 -0.05,-0.1 0,-0.25 0,-0.25 0,-0.4 -0.1,-3.55 -1.85,-6.65 h -0.05 q -0.1,-0.15 -0.1,-0.3 -0.2,-0.3 -0.6,-0.45 -0.3,-0.15 -0.65,0.05 l -2,0.55 q -0.1,0.8 -0.25,1.6 l -0.45,2.2 q -0.15,1.55 -1.4,2.65 z"
                 id="path6133" />
              <path
                 fill="#475577"
                 stroke="none"
                 d="m 3118.4,763.25 q -0.1,0.4 -0.15,0.8 -0.05,0.35 -0.1,0.7 v -0.05 l -0.45,2.2 q -0.05,0.1 -0.05,0.2 -0.1,0.8 -0.7,1.35 -0.05,0.05 -0.1,0.1 -0.5,0.5 -1.2,0.5 h -2.25 q -0.25,0 -0.45,0 -0.35,-0.1 -0.7,0 -0.3,0.05 -0.6,0.25 -0.65,0.35 -0.85,1 -0.25,0.65 -0.05,1.35 0.2,0.65 0.8,1.05 0.35,0.2 0.7,0.4 2.7,1.55 6,1.65 1.35,0 2.75,-0.2 l 4.05,-0.6 H 3125 q 1,-0.15 1.65,-0.7 0.25,-0.2 0.45,-0.45 0.15,-0.25 0.3,-0.5 l -1.8,-1.6 q -0.05,0.15 0,0.25 0,0.45 -0.2,0.75 -0.25,0.2 -0.65,0.25 l -4.05,0.6 q -1.25,0.2 -2.45,0.15 -3.1,-0.05 -5.6,-1.7 0.35,0.05 0.75,0.05 h 2.25 q 1.5,0 2.6,-1.1 1.25,-1.1 1.4,-2.65 l 0.45,-2.2 q 0.15,-0.8 0.25,-1.6 l 2,-0.55 q 0.35,-0.2 0.65,-0.05 0.4,0.15 0.6,0.45 0,0.15 0.1,0.3 h 0.05 l 0.7,-2.25 q -0.25,-0.15 -0.55,-0.3 -1.05,-0.6 -2.25,0 l -1.8,0.5 q -0.6,0.15 -1,0.6 -0.4,0.45 -0.45,1.05 z"
                 id="path6135" />
            </g>
            <g
               id="use5288"
               transform="matrix(0.26458333,0,0,0.26458333,-2784.85,-362)">
              <path
                 fill="#2e3438"
                 stroke="none"
                 d="m 3116,758 q -1.2,-0.1 -2.1,1 -0.9,0.75 -0.9,2.25 v 3.5 q 0,1.5 0.9,2.3 0.9,1.05 2.1,0.95 h 12.95 q 1.2,0.1 2.25,-1.05 l -0.05,0.1 q 0.45,-0.45 0.65,-1.05 h 4.45 q 0.15,0.25 0.35,0.45 0.55,0.55 1.4,0.55 h 6 q 0.85,0 1.45,-0.55 0.55,-0.6 0.55,-1.45 v -4 q 0,-0.85 -0.55,-1.4 -0.6,-0.6 -1.45,-0.6 h -6 q -0.85,0 -1.4,0.6 -0.2,0.15 -0.35,0.4 h -4.45 q -0.2,-0.6 -0.65,-1 l 0.05,0.1 q -1.05,-1.2 -2.25,-1.1 H 3116 m -0.7,2.4 q 0.3,-0.4 0.7,-0.4 h 12.95 q 0.4,0 0.75,0.4 0.3,0.3 0.3,0.85 V 762 h 8 v -1 h 6 v 4 h -6 v -1 h -8 v 0.75 q 0,0.55 -0.3,0.85 -0.35,0.4 -0.75,0.4 H 3116 q -0.4,0 -0.7,-0.4 -0.3,-0.3 -0.3,-0.85 v -3.5 q 0,-0.55 0.3,-0.85 z"
                 id="path6121" />
              <path
                 fill="#55636b"
                 stroke="none"
                 d="m 3130,762 v 2 h 8 v -2 h -8 m -8.5,-1 h -0.65 v 4 h 0.65 v -4 m -5.5,0 v 4 h 2.5 v -4 z"
                 id="path6123" />
              <path
                 fill="#464f54"
                 stroke="none"
                 d="m 3144,765 v -4 h -6 v 1 2 1 h 6 m -28,-5 q -0.4,0 -0.7,0.4 -0.3,0.3 -0.3,0.85 v 3.5 q 0,0.55 0.3,0.85 0.3,0.4 0.7,0.4 h 12.95 q 0.4,0 0.75,-0.4 0.3,-0.3 0.3,-0.85 v -0.75 -2 -0.75 q 0,-0.55 -0.3,-0.85 -0.35,-0.4 -0.75,-0.4 H 3116 m 0,5 v -4 h 2.5 v 4 h -2.5 m 4.85,-4 h 0.65 v 4 h -0.65 z"
                 id="path6125" />
            </g>
          </g>
          <g
             id="g971"
             transform="matrix(0.99234068,0.12354129,0.12352115,-0.99234068,4.8974069,-81.517735)"
             inkscape:transform-center-x="-118.67311"
             inkscape:transform-center-y="-36.66022">
            <g
               id="g961"
               transform="matrix(0.26458333,0,0,0.26458333,-2784.85,-362)">
              <path
                 fill="#ffd0a3"
                 stroke="none"
                 d="m 3127,762.75 -3.25,0.9 q 1.75,3.1 1.85,6.65 0,0.15 0,0.4 l 3.25,-0.95 q 0.45,-0.1 0.75,-0.25 0.35,-0.2 0.55,-0.45 0.65,-0.7 0.35,-1.9 l -0.85,-2.9 q 0,-0.1 -0.05,-0.2 -0.55,-1.85 -2.6,-1.3 z"
                 id="path953" />
              <path
                 fill="#a38568"
                 stroke="none"
                 d="m 3126.45,760.85 h 0.05 l -2.05,0.55 -0.7,2.25 3.25,-0.9 q 2.05,-0.55 2.6,1.3 0.05,0.1 0.05,0.2 l 0.85,2.9 q 0.3,1.2 -0.35,1.9 -0.2,0.25 -0.55,0.45 -0.3,0.15 -0.75,0.25 l -3.25,0.95 1.8,1.6 2,-0.6 q 0.1,-0.05 0.2,-0.05 1.35,-0.4 2.05,-1.25 1.4,-1.35 0.8,-3.7 0,-0.05 0,-0.1 l -0.85,-2.8 q -0.5,-2.05 -1.85,-2.7 -0.1,-0.05 -0.15,-0.1 -1.2,-0.7 -3.15,-0.15 z"
                 id="path955" />
              <path
                 fill="#6376a3"
                 stroke="none"
                 d="m 3118.25,769.95 q -1.1,1.1 -2.6,1.1 h -2.25 q -0.4,0 -0.75,-0.05 2.5,1.65 5.6,1.7 1.2,0.05 2.45,-0.15 l 4.05,-0.6 q 0.4,-0.05 0.65,-0.25 0.2,-0.3 0.2,-0.75 -0.05,-0.1 0,-0.25 0,-0.25 0,-0.4 -0.1,-3.55 -1.85,-6.65 h -0.05 q -0.1,-0.15 -0.1,-0.3 -0.2,-0.3 -0.6,-0.45 -0.3,-0.15 -0.65,0.05 l -2,0.55 q -0.1,0.8 -0.25,1.6 l -0.45,2.2 q -0.15,1.55 -1.4,2.65 z"
                 id="path957" />
              <path
                 fill="#475577"
                 stroke="none"
                 d="m 3118.4,763.25 q -0.1,0.4 -0.15,0.8 -0.05,0.35 -0.1,0.7 v -0.05 l -0.45,2.2 q -0.05,0.1 -0.05,0.2 -0.1,0.8 -0.7,1.35 -0.05,0.05 -0.1,0.1 -0.5,0.5 -1.2,0.5 h -2.25 q -0.25,0 -0.45,0 -0.35,-0.1 -0.7,0 -0.3,0.05 -0.6,0.25 -0.65,0.35 -0.85,1 -0.25,0.65 -0.05,1.35 0.2,0.65 0.8,1.05 0.35,0.2 0.7,0.4 2.7,1.55 6,1.65 1.35,0 2.75,-0.2 l 4.05,-0.6 H 3125 q 1,-0.15 1.65,-0.7 0.25,-0.2 0.45,-0.45 0.15,-0.25 0.3,-0.5 l -1.8,-1.6 q -0.05,0.15 0,0.25 0,0.45 -0.2,0.75 -0.25,0.2 -0.65,0.25 l -4.05,0.6 q -1.25,0.2 -2.45,0.15 -3.1,-0.05 -5.6,-1.7 0.35,0.05 0.75,0.05 h 2.25 q 1.5,0 2.6,-1.1 1.25,-1.1 1.4,-2.65 l 0.45,-2.2 q 0.15,-0.8 0.25,-1.6 l 2,-0.55 q 0.35,-0.2 0.65,-0.05 0.4,0.15 0.6,0.45 0,0.15 0.1,0.3 h 0.05 l 0.7,-2.25 q -0.25,-0.15 -0.55,-0.3 -1.05,-0.6 -2.25,0 l -1.8,0.5 q -0.6,0.15 -1,0.6 -0.4,0.45 -0.45,1.05 z"
                 id="path959" />
            </g>
            <g
               id="g969"
               transform="matrix(0.26458333,0,0,0.26458333,-2784.85,-362)">
              <path
                 fill="#2e3438"
                 stroke="none"
                 d="m 3116,758 q -1.2,-0.1 -2.1,1 -0.9,0.75 -0.9,2.25 v 3.5 q 0,1.5 0.9,2.3 0.9,1.05 2.1,0.95 h 12.95 q 1.2,0.1 2.25,-1.05 l -0.05,0.1 q 0.45,-0.45 0.65,-1.05 h 4.45 q 0.15,0.25 0.35,0.45 0.55,0.55 1.4,0.55 h 6 q 0.85,0 1.45,-0.55 0.55,-0.6 0.55,-1.45 v -4 q 0,-0.85 -0.55,-1.4 -0.6,-0.6 -1.45,-0.6 h -6 q -0.85,0 -1.4,0.6 -0.2,0.15 -0.35,0.4 h -4.45 q -0.2,-0.6 -0.65,-1 l 0.05,0.1 q -1.05,-1.2 -2.25,-1.1 H 3116 m -0.7,2.4 q 0.3,-0.4 0.7,-0.4 h 12.95 q 0.4,0 0.75,0.4 0.3,0.3 0.3,0.85 V 762 h 8 v -1 h 6 v 4 h -6 v -1 h -8 v 0.75 q 0,0.55 -0.3,0.85 -0.35,0.4 -0.75,0.4 H 3116 q -0.4,0 -0.7,-0.4 -0.3,-0.3 -0.3,-0.85 v -3.5 q 0,-0.55 0.3,-0.85 z"
                 id="path963" />
              <path
                 fill="#55636b"
                 stroke="none"
                 d="m 3130,762 v 2 h 8 v -2 h -8 m -8.5,-1 h -0.65 v 4 h 0.65 v -4 m -5.5,0 v 4 h 2.5 v -4 z"
                 id="path965" />
              <path
                 fill="#464f54"
                 stroke="none"
                 d="m 3144,765 v -4 h -6 v 1 2 1 h 6 m -28,-5 q -0.4,0 -0.7,0.4 -0.3,0.3 -0.3,0.85 v 3.5 q 0,0.55 0.3,0.85 0.3,0.4 0.7,0.4 h 12.95 q 0.4,0 0.75,-0.4 0.3,-0.3 0.3,-0.85 v -0.75 -2 -0.75 q 0,-0.55 -0.3,-0.85 -0.35,-0.4 -0.75,-0.4 H 3116 m 0,5 v -4 h 2.5 v 4 h -2.5 m 4.85,-4 h 0.65 v 4 h -0.65 z"
                 id="path967" />
            </g>
          </g>
          <g
             id="use5292"
             transform="matrix(0.26458333,0,0,0.26458333,-2784.85,-362)"
             inkscape:label="use5292">
            <path
               fill="#5d5148"
               stroke="none"
               d="m 3126.5,746.9 h -0.05 q -1.75,-1.85 -4.1,-2.9 l -1.8,1.45 q 2.6,0.9 4.45,2.8 2.2,2.4 2.2,5.4 0,2.95 -2.2,5.4 -1.85,1.95 -4.5,2.9 l 1.8,1.4 q 2.4,-1.1 4.15,-2.9 0,-0.05 0.05,-0.05 2.75,-3.05 2.7,-6.75 0,-3.75 -2.7,-6.75 z"
               id="path6101" />
            <path
               fill="#475577"
               stroke="none"
               d="m 3113.9,773 h -3.05 q -2,0 -3.65,-1.45 -1.5,-1.45 -1.85,-3.6 l -0.15,-1.35 -1.85,1.5 v 0.1 l 0.05,0.1 q 0.45,2.8 2.4,4.7 0.05,0 0.1,0.05 2.2,1.95 4.95,1.95 h 3.05 q 2.75,0 4.9,-1.95 0,-0.05 0.05,-0.05 2.2,-1.95 2.5,-4.75 l 0.55,-2.75 h 0.05 q 0,-0.2 0.05,-0.35 v 0.05 q 0.15,-0.9 0.3,-1.85 l -1.8,-1.4 q -0.2,1.45 -0.5,2.9 0,0.1 -0.05,0.25 l -0.6,2.9 v -0.1 q -0.2,2.15 -1.9,3.65 -1.55,1.45 -3.55,1.45 m 5.2,-38.8 q -0.15,-0.2 -0.3,-0.35 -2.15,-1.85 -4.9,-1.85 h -3.05 q -2.7,0 -4.95,1.9 -0.05,0 -0.1,0.05 -1.95,1.9 -2.4,4.75 -0.05,0.1 -0.05,0.2 -0.1,0.05 -0.15,0.1 l 2,1.45 0.15,-1.35 V 739 q 0.35,-2.15 1.85,-3.6 1.65,-1.4 3.65,-1.4 h 3.05 q 2,0 3.55,1.35 v 0.05 q 1.7,1.5 1.9,3.6 l 0.6,2.9 q 0.05,0.25 0.1,0.5 0.15,0.75 0.25,1.55 0.1,0.75 0.25,1.5 l 1.8,-1.45 q -0.05,-0.2 -0.05,-0.35 -0.15,-0.8 -0.25,-1.6 -0.05,0 -0.05,-0.05 -0.05,-0.25 -0.05,-0.45 l -0.05,-0.05 -0.6,-2.9 0.05,0.2 q -0.25,-2.7 -2.25,-4.6 z"
               id="path6103" />
            <path
               fill="#ffd0a3"
               stroke="none"
               d="m 3111.35,763.85 q -0.3,0 -0.6,0 1.3,0.25 2.75,0.25 0.15,0 0.3,0 0.3,-0.05 0.6,-0.1 1.85,-0.15 3.45,-0.95 0.55,-0.25 1.05,-0.6 -0.3,0.05 -0.55,0.1 l -3.4,0.65 -3.35,0.65 q -0.15,0 -0.25,0 m 3.85,-20.2 q -0.4,-0.05 -0.8,-0.1 -0.45,-0.1 -0.9,-0.1 -0.8,0 -1.6,0.1 l 3.5,0.7 2.95,0.6 q 0.1,0 0.2,0.05 -1,-0.6 -2.05,-0.95 -0.65,-0.2 -1.3,-0.3 z"
               id="path6105" />
            <path
               fill="#6376a3"
               stroke="none"
               d="m 3105,764.8 0.2,1.8 0.15,1.35 q 0.35,2.15 1.85,3.6 1.65,1.45 3.65,1.45 h 3.05 q 2,0 3.55,-1.45 1.7,-1.5 1.9,-3.65 v 0.1 l 0.6,-2.9 q 0.05,-0.15 0.05,-0.25 -7.75,3.8 -15,-0.05 m 14.95,-22.9 -0.6,-2.9 q -0.2,-2.1 -1.9,-3.6 v -0.05 Q 3115.9,734 3113.9,734 h -3.05 q -2,0 -3.65,1.4 -1.5,1.45 -1.85,3.6 v 0.1 l -0.15,1.35 -0.25,2 q 7.3,-3.9 15.1,-0.05 -0.05,-0.25 -0.1,-0.5 z"
               id="path6107" />
            <path
               fill="#987047"
               stroke="none"
               d="m 3104.55,761.2 0.45,3.6 q 7.25,3.85 15,0.05 0.3,-1.45 0.5,-2.9 -0.8,0.3 -1.6,0.5 -0.5,0.35 -1.05,0.6 -1.6,0.8 -3.45,0.95 -0.3,0.05 -0.6,0.1 -0.15,0 -0.3,0 -1.45,0 -2.75,-0.25 -1.2,-0.1 -2.3,-0.4 -2.1,-0.65 -3.9,-2.25 m 9.85,-17.65 q 0.4,0.05 0.8,0.1 0.65,0.1 1.3,0.3 1.05,0.35 2.05,0.95 1.05,0.2 2,0.55 -0.15,-0.75 -0.25,-1.5 -0.1,-0.8 -0.25,-1.55 -7.8,-3.85 -15.1,0.05 l -0.45,3.65 q 1.7,-1.5 3.65,-2.15 0.15,-0.05 0.3,-0.1 1.4,-0.4 2.9,-0.4 0.05,0 0.1,0 l 0.45,0.1 q 0.8,-0.1 1.6,-0.1 0.45,0 0.9,0.1 z"
               id="path6109" />
            <path
               fill="#8c7a6c"
               stroke="none"
               d="m 3111.35,743.45 q -1.5,0 -2.9,0.4 -0.15,0.05 -0.3,0.1 -1.95,0.65 -3.65,2.15 -0.15,0.15 -0.35,0.3 -3,3.05 -3,7.25 0,4.2 3,7.15 0.2,0.2 0.4,0.4 1.8,1.6 3.9,2.25 1.1,0.3 2.3,0.4 0.3,0 0.6,0 0.1,0 0.25,0 l 3.35,-0.65 q 1.95,-0.75 3.55,-2.4 3.05,-2.95 3.05,-7.15 0,-4.2 -3.05,-7.25 -1.4,-1.4 -3.1,-2.15 l -3.5,-0.7 -0.45,-0.1 q -0.05,0 -0.1,0 z"
               id="path6111" />
            <path
               fill="#7b6c5f"
               stroke="none"
               d="m 3118.35,744.85 -2.95,-0.6 q 1.7,0.75 3.1,2.15 3.05,3.05 3.05,7.25 0,4.2 -3.05,7.15 -1.6,1.65 -3.55,2.4 l 3.4,-0.65 q 0.25,-0.05 0.55,-0.1 0.8,-0.2 1.6,-0.5 2.65,-0.95 4.5,-2.9 2.2,-2.45 2.2,-5.4 0,-3 -2.2,-5.4 -1.85,-1.9 -4.45,-2.8 -0.95,-0.35 -2,-0.55 -0.1,-0.05 -0.2,-0.05 z"
               id="path6113" />
            <path
               fill="#7e5d3b"
               stroke="none"
               d="m 3104.95,742.45 0.25,-2 q -2.45,0.55 -4.3,2.4 -2.65,2.65 -2.65,6.4 v 8.5 q 0,3.75 2.65,6.4 1.85,1.85 4.3,2.45 l -0.2,-1.8 -0.45,-3.6 q -0.2,-0.2 -0.4,-0.4 -3,-2.95 -3,-7.15 0,-4.2 3,-7.25 0.2,-0.15 0.35,-0.3 z"
               id="path6115" />
            <path
               fill="#62482d"
               stroke="none"
               d="m 3103.2,739 q -2.05,0.75 -3.7,2.45 -3.25,3.2 -3.25,7.8 v 8.5 q 0,4.6 3.25,7.85 1.7,1.7 3.85,2.5 l 1.85,-1.5 q -2.45,-0.6 -4.3,-2.45 -2.65,-2.65 -2.65,-6.4 v -8.5 q 0,-3.75 2.65,-6.4 1.85,-1.85 4.3,-2.4 z"
               id="path6117" />
          </g>
        </g>
      </g>
    </g>
  </g>
</svg>
